<?xml version="1.0" standalone="no"?>
<!DOCTYPE svg PUBLIC "-//W3C//DTD SVG 20010904//EN"
 "http://www.w3.org/TR/2001/REC-SVG-20010904/DTD/svg10.dtd">
<svg version="1.0" xmlns="http://www.w3.org/2000/svg"
 width="1172.000000pt" height="1280.000000pt" viewBox="0 0 1172.000000 1280.000000"
 preserveAspectRatio="xMidYMid meet">
<metadata>
Created by potrace 1.15, written by Peter Selinger 2001-2017
</metadata>
<g transform="translate(0.000000,1280.000000) scale(0.100000,-0.100000)"
fill="#000000" stroke="none">
<path d="M6345 12764 c-111 -16 -171 -28 -251 -50 l-92 -26 -78 27 c-112 40
-258 46 -372 16 -306 -79 -725 -259 -952 -409 -340 -224 -766 -630 -952 -907
-135 -201 -466 -957 -693 -1580 -48 -132 -154 -409 -235 -615 -82 -206 -174
-447 -204 -535 -98 -280 -166 -456 -228 -590 -33 -71 -89 -191 -123 -265 -131
-282 -178 -530 -174 -915 l3 -220 -33 -100 c-128 -393 -142 -712 -45 -979 81
-221 126 -366 150 -483 l27 -132 -36 -108 c-20 -59 -46 -147 -57 -196 -49
-213 -140 -369 -274 -468 -45 -33 -42 -34 79 -14 122 20 125 19 71 -16 -41
-28 -77 -65 -101 -108 -18 -32 210 30 317 86 73 38 73 38 56 14 -87 -123 -268
-297 -418 -400 -208 -143 -286 -297 -259 -512 8 -65 17 -95 41 -131 16 -27 31
-48 32 -48 0 0 1 42 1 93 0 87 2 96 37 162 67 125 167 228 286 296 48 27 215
89 241 89 6 0 -3 -21 -19 -47 -61 -96 -144 -338 -185 -543 -28 -135 -30 -140
-51 -140 -23 0 -285 -87 -399 -132 -55 -22 -152 -65 -215 -95 -63 -30 -156
-72 -207 -93 -313 -129 -541 -395 -691 -806 -121 -331 -269 -1174 -307 -1751
l-7 -103 5831 0 c3207 0 5831 3 5831 8 0 16 -51 407 -70 540 -73 497 -181 894
-322 1177 -137 274 -285 458 -458 570 -137 89 -279 174 -347 209 l-71 35 -54
103 c-30 57 -74 132 -97 168 l-43 65 5 95 c7 124 27 181 91 246 58 59 121 84
213 84 78 0 155 38 183 90 7 13 -3 15 -72 12 -136 -6 -242 44 -376 175 l-75
75 44 25 c149 84 231 215 258 413 25 172 53 486 59 650 l7 175 34 -60 c77
-137 180 -249 273 -300 42 -23 68 -30 133 -33 72 -3 84 -1 115 20 19 13 44 38
55 55 11 18 23 32 27 33 14 0 118 -154 166 -247 28 -54 62 -138 77 -186 15
-48 30 -86 32 -83 11 11 -20 188 -48 271 -33 98 -63 156 -149 285 -101 152
-159 247 -241 402 -111 207 -182 313 -307 460 -8 10 20 -2 63 -27 117 -66 183
-86 306 -92 91 -5 117 -2 183 17 42 13 76 26 76 29 0 3 -37 7 -83 8 -317 9
-626 230 -746 535 -23 59 -30 95 -35 188 -3 63 -13 146 -21 183 -8 38 -19 105
-25 150 -13 100 -54 259 -87 341 -37 90 -66 145 -143 268 -146 232 -244 450
-284 630 -14 64 -37 153 -52 198 -14 45 -45 180 -70 300 -124 612 -228 927
-534 1625 -73 165 -179 410 -237 545 -333 778 -525 1102 -842 1417 -217 217
-492 422 -882 660 -148 91 -193 113 -304 153 -166 58 -242 71 -450 75 -104 2
-203 1 -220 -1z m4636 -7886 c96 -85 182 -165 193 -176 18 -21 18 -22 -10 -33
-16 -7 -63 -13 -104 -13 -66 -1 -84 3 -143 32 -113 56 -204 183 -297 417 -18
44 -41 102 -52 129 l-19 50 129 -126 c71 -68 208 -195 303 -280z"/>
</g>
</svg>
